<svg xmlns="http://www.w3.org/2000/svg" viewBox="0 0 318.667 314.667"><circle fill="#8DBCD2" stroke="#FFFFFF" stroke-miterlimit="10" cx="160.147" cy="160.458" r="147.957"/><circle fill="#89BD3D" stroke="#FFFFFF" stroke-miterlimit="10" cx="160.147" cy="160.458" r="115.722"/><circle fill="#E84427" stroke="#FFFFFF" stroke-miterlimit="10" cx="160.147" cy="160.458" r="74.784"/><circle fill="#FFD239" stroke="#FFFFFF" stroke-miterlimit="10" cx="160.147" cy="160.458" r="37.392"/><g fill="#FFFFFF"><path d="M131.006 108.166l1.284-.619 2.021 4.19c.314.65.535 1.066.662 1.248.221.314.484.512.789.596.304.083.631.039.981-.129.298-.145.509-.327.632-.55.125-.223.166-.468.122-.734-.044-.268-.253-.786-.625-1.557l-2.065-4.28 1.283-.619 1.961 4.063c.5 1.038.807 1.815.919 2.331.111.517.042 1.014-.21 1.488s-.699.867-1.339 1.176c-.664.32-1.241.452-1.727.395a2.255 2.255 0 0 1-1.296-.611c-.376-.35-.843-1.104-1.402-2.262l-1.99-4.126zM139.984 111.488l1.202-.686c.326.577.777.765 1.356.563.308-.107.517-.246.627-.418a.588.588 0 0 0 .068-.538.464.464 0 0 0-.207-.271c-.096-.049-.258-.064-.486-.047-1.148.088-1.91.056-2.283-.096-.465-.19-.792-.559-.983-1.106-.191-.548-.169-1.046.064-1.497.233-.45.682-.791 1.346-1.022.634-.221 1.158-.266 1.574-.136.417.131.785.445 1.109.945l-1.112.691c-.272-.436-.658-.564-1.159-.391-.315.11-.524.233-.626.37-.102.138-.127.278-.076.422.045.13.144.216.295.258.152.046.579.048 1.279.005.784-.048 1.355.026 1.71.221.352.196.609.53.774 1.003.199.568.167 1.105-.096 1.611-.262.505-.738.878-1.428 1.118-.626.219-1.192.242-1.696.072-.503-.166-.921-.525-1.252-1.071zM148.464 108.701l1.376-.048c-.031.65-.194 1.167-.494 1.551s-.715.639-1.246.767c-.738.178-1.367.069-1.886-.325-.611-.456-1.041-1.198-1.288-2.225-.243-1.013-.2-1.881.13-2.604.281-.611.742-.994 1.384-1.148.713-.172 1.335-.044 1.866.383.61.489 1.056 1.319 1.339 2.491l.038.184-3.303.796c.123.479.321.824.593 1.036.271.214.555.284.85.213.424-.102.638-.459.641-1.071zm-.323-1.639c-.125-.47-.312-.802-.561-.994-.248-.191-.503-.256-.767-.193-.279.067-.482.248-.615.541-.134.299-.144.673-.032 1.121l1.975-.475zM158.087 106.232l1.418.433c-.146.974-.454 1.699-.924 2.178-.469.479-1.07.744-1.803.797-.919.065-1.69-.233-2.313-.897-.716-.768-1.124-1.843-1.224-3.226-.104-1.461.145-2.629.748-3.502.524-.759 1.272-1.172 2.245-1.242.792-.057 1.473.164 2.045.664.408.354.727.901.957 1.641l-1.38.51c-.123-.456-.328-.799-.615-1.027a1.356 1.356 0 0 0-.976-.303c-.522.037-.931.294-1.229.77-.297.476-.408 1.233-.333 2.273.078 1.08.293 1.836.646 2.268.354.434.788.631 1.302.596.375-.027.69-.196.942-.506.253-.312.417-.787.494-1.427zM161.898 105.048l-1.217-.324c.176-.621.443-1.063.798-1.322.355-.26.854-.376 1.498-.347.573.024 1.005.124 1.301.298.295.173.501.4.618.682.118.281.159.785.128 1.512l-.098 1.92c-.023.54-.02.943.012 1.208.032.266.099.549.204.852l-1.341-.06-.147-.687c-.244.263-.5.458-.771.584a1.8 1.8 0 0 1-.854.171c-.498-.021-.898-.207-1.202-.556-.302-.348-.44-.799-.417-1.354.016-.352.094-.655.236-.911.14-.257.332-.457.575-.604.241-.146.624-.268 1.147-.366.634-.116 1.077-.232 1.33-.346.016-.346 0-.573-.043-.684a.576.576 0 0 0-.259-.277c-.127-.074-.312-.117-.552-.127-.242-.012-.436.035-.58.139-.145.102-.266.302-.366.599zm1.753 1.42a6.577 6.577 0 0 1-.818.211c-.424.092-.703.201-.839.328a.71.71 0 0 0-.217.508c-.01.238.053.442.188.611s.313.258.527.268c.192.008.385-.049.581-.172.193-.123.331-.272.411-.449.081-.177.132-.502.152-.976l.015-.329zM165.753 107.803l1.383-.053c.021.663.336 1.038.942 1.126.322.047.571.021.75-.079a.595.595 0 0 0 .31-.447.463.463 0 0 0-.059-.335c-.063-.088-.199-.176-.409-.267-1.06-.452-1.72-.832-1.98-1.14-.325-.383-.446-.861-.362-1.436.084-.572.334-1.006.749-1.297.416-.292.972-.387 1.666-.285.665.097 1.15.299 1.459.607.308.307.49.757.548 1.35l-1.307.1c-.041-.512-.323-.806-.847-.882-.33-.049-.573-.034-.726.039a.438.438 0 0 0-.264.339c-.02.136.027.257.143.365.115.111.492.31 1.132.595.719.321 1.19.649 1.416.986.221.337.294.753.223 1.248-.087.595-.363 1.057-.83 1.384-.465.327-1.06.438-1.783.332-.657-.096-1.169-.336-1.537-.719-.37-.383-.575-.894-.617-1.531zM174.569 109.259l1.241.596c-.328.563-.714.944-1.157 1.145-.443.201-.93.234-1.46.101-.735-.185-1.242-.571-1.52-1.161-.33-.688-.365-1.545-.108-2.57.253-1.01.695-1.758 1.323-2.245.532-.411 1.119-.536 1.758-.376.711.18 1.204.581 1.476 1.206.314.717.325 1.659.031 2.828l-.052.18-3.295-.827c-.113.48-.098.879.044 1.193s.361.509.654.582c.425.106.778-.111 1.065-.652zm.476-1.602c.108-.475.096-.854-.035-1.141-.13-.285-.327-.461-.589-.527-.279-.069-.543-.005-.797.194-.257.202-.44.528-.549.978l1.97.496zM176.48 109.975l1.366.226c-.112.654.12 1.085.696 1.293.307.111.556.135.75.072s.325-.188.393-.375a.468.468 0 0 0 .011-.34c-.043-.099-.16-.213-.348-.343-.947-.657-1.517-1.161-1.71-1.515-.241-.441-.263-.934-.066-1.479.198-.544.529-.918.995-1.12.465-.201 1.029-.184 1.689.056.631.229 1.066.524 1.308.888.24.363.328.841.264 1.433l-1.299-.165c.063-.51-.154-.854-.652-1.034-.314-.113-.553-.149-.72-.107-.165.042-.274.135-.325.278-.047.129-.024.258.066.387.09.133.419.402.989.811.639.459 1.035.876 1.188 1.251.149.374.139.796-.032 1.267-.205.566-.568.963-1.091 1.189-.523.226-1.126.215-1.813-.033-.623-.227-1.077-.564-1.361-1.014-.288-.453-.386-.994-.298-1.626z"/></g><g fill="#FFFFFF"><path d="M143.7 162.688v-8.59h5.227v1.453h-3.809v1.904h3.539v1.447h-3.539v2.332h3.938v1.453H143.7zM154.891 162.688h-1.354v-3.18c0-.637-.025-1.062-.076-1.272s-.146-.374-.284-.487-.296-.17-.472-.17c-.227 0-.432.073-.615.22s-.313.35-.387.607-.111.745-.111 1.461v2.821h-1.354v-6.223h1.254v.908c.223-.352.474-.615.753-.791s.589-.264.929-.264c.395 0 .728.103.999.308s.459.47.563.792.155.789.155 1.398v3.872zM158.594 156.466v1.313h-.92v2.512c0 .544.014.859.041.945.055.156.166.234.334.234.125 0 .305-.053.539-.158l.117 1.277a2.25 2.25 0 0 1-1.061.246c-.344 0-.619-.082-.826-.246s-.346-.401-.416-.71c-.055-.227-.082-.688-.082-1.385v-2.716h-.62v-1.313h.621v-1.236l1.354-.961v2.197h.919zM159.538 155.622v-1.523h1.354v1.523h-1.354zm0 7.066v-6.223h1.354v6.223h-1.354zM164.606 156.466v1.313h-.92v2.512c0 .544.014.859.041.945.055.156.166.234.334.234.125 0 .305-.053.539-.158l.117 1.277a2.25 2.25 0 0 1-1.061.246c-.344 0-.619-.082-.826-.246s-.346-.401-.416-.71c-.055-.227-.082-.688-.082-1.385v-2.716h-.621v-1.313h.621v-1.236l1.354-.961v2.197h.92zM165.549 155.622v-1.523h1.354v1.523h-1.354zm0 7.066v-6.223h1.354v6.223h-1.354zM171.251 160.714l1.342.275c-.18.625-.459 1.089-.839 1.392s-.841.454-1.385.454c-.755 0-1.337-.252-1.748-.757-.485-.587-.728-1.409-.728-2.466 0-1.041.244-1.874.732-2.5.414-.528.949-.793 1.605-.793.73 0 1.303.27 1.717.81.477.618.715 1.53.715 2.735l-.006.188h-3.381c.008.494.119.876.332 1.146.213.271.471.406.773.406.436 0 .726-.296.871-.89zm.07-1.67c-.012-.486-.115-.852-.311-1.098-.195-.244-.428-.367-.697-.367-.285 0-.525.128-.721.383-.199.259-.297.619-.293 1.082h2.022zM173.284 160.919l1.354-.252c.117.652.48.979 1.09.979.324 0 .566-.063.727-.188s.24-.287.24-.486a.469.469 0 0 0-.105-.323c-.074-.078-.221-.146-.441-.204-1.108-.295-1.813-.576-2.114-.842-.375-.333-.563-.789-.563-1.369 0-.579.184-1.043.551-1.392s.9-.522 1.6-.522c.668 0 1.176.13 1.523.39s.592.679.732 1.257l-1.271.287c-.113-.5-.434-.75-.961-.75-.332 0-.568.048-.709.144-.141.097-.211.221-.211.373 0 .137.064.251.193.341.128.094.529.235 1.2.426.753.213 1.265.471 1.535.771.266.301.399.702.399 1.202 0 .602-.206 1.098-.618 1.489-.412.391-.981.586-1.708.586-.66 0-1.199-.163-1.617-.489s-.693-.803-.826-1.428z"/></g><path fill="#FFFFFF" d="M32.123 158.638c4.086-.602 8.18-.996 12.294-1.234 2.057-.103 4.117-.181 6.181-.162 2.061.011 4.137.101 6.18.43-2.064.059-4.107.23-6.158.35l-6.149.38c-4.102.205-8.215.418-12.348.236z"/><path fill="#FFFFFF" d="M50.386 150.693c1.182 1.888 2.842 3.35 4.655 4.542 1.83 1.179 3.789 2.157 5.774 3.124l1.238.603-1.342.323a44.67 44.67 0 0 0-6.794 2.245 36.78 36.78 0 0 0-3.255 1.53c-1.08.534-2.118 1.146-3.165 1.76.911-.804 1.902-1.512 2.91-2.197a37.409 37.409 0 0 1 3.179-1.814 31.761 31.761 0 0 1 6.895-2.487l-.104.926c-1.977-.993-3.978-2.027-5.764-3.408-1.787-1.351-3.394-3.069-4.227-5.147zM71.791 159.52c4.086-.602 8.18-.996 12.294-1.234 2.057-.103 4.117-.18 6.181-.162 2.061.011 4.137.101 6.18.43-2.064.059-4.107.23-6.158.35l-6.149.38c-4.103.205-8.216.418-12.348.236z"/><path fill="#FFFFFF" d="M90.053 151.574c1.182 1.888 2.842 3.35 4.655 4.542 1.83 1.179 3.789 2.157 5.774 3.124l1.238.603-1.342.323a44.67 44.67 0 0 0-6.794 2.245 36.78 36.78 0 0 0-3.255 1.53c-1.08.534-2.118 1.146-3.165 1.76.911-.804 1.902-1.512 2.91-2.197a37.409 37.409 0 0 1 3.179-1.814 31.761 31.761 0 0 1 6.895-2.487l-.104.926c-1.977-.993-3.978-2.027-5.764-3.408-1.787-1.35-3.394-3.068-4.227-5.147zM109.117 158.875c4.086-.602 8.18-.996 12.294-1.234 2.057-.103 4.117-.181 6.181-.162 2.061.011 4.137.101 6.18.43-2.064.059-4.107.23-6.158.35l-6.149.38c-4.103.205-8.216.419-12.348.236z"/><path fill="#FFFFFF" d="M127.379 150.93c1.182 1.888 2.842 3.35 4.655 4.542 1.83 1.179 3.789 2.157 5.774 3.124l1.238.603-1.342.323a44.67 44.67 0 0 0-6.794 2.245 36.78 36.78 0 0 0-3.255 1.53c-1.08.534-2.118 1.146-3.165 1.76.911-.804 1.902-1.512 2.91-2.197a37.409 37.409 0 0 1 3.179-1.814 31.761 31.761 0 0 1 6.895-2.487l-.104.926c-1.977-.993-3.978-2.027-5.764-3.408-1.787-1.35-3.394-3.069-4.227-5.147z"/><g fill="#FFFFFF"><path d="M116.589 77.412l1.458-.2c.274.938.298 1.721.075 2.348-.224.627-.655 1.116-1.293 1.469-.802.442-1.621.494-2.458.154-.964-.393-1.78-1.192-2.445-2.397-.704-1.272-.964-2.429-.785-3.467.158-.902.659-1.587 1.506-2.054.689-.382 1.396-.466 2.119-.254.516.15 1.03.51 1.546 1.08l-1.031 1.035c-.302-.361-.629-.584-.982-.67a1.35 1.35 0 0 0-1.007.133c-.454.251-.716.653-.786 1.205-.069.553.146 1.282.646 2.188.52.94 1.028 1.532 1.527 1.774.499.243.972.24 1.419-.006.327-.181.541-.464.639-.849.098-.383.049-.88-.148-1.489zM118.653 76.283a3.765 3.765 0 0 1-.368-1.654c.01-.553.14-1.023.388-1.413.249-.39.595-.687 1.037-.892.742-.345 1.46-.325 2.152.058.693.383 1.219.962 1.579 1.738.268.578.4 1.15.395 1.718-.005.568-.133 1.052-.383 1.453-.251.4-.59.7-1.017.898-.686.318-1.376.321-2.07.01s-1.265-.95-1.713-1.916zm1.289-.501c.263.568.574.945.932 1.133.358.188.695.208 1.01.063.308-.143.505-.412.588-.807.084-.395-.006-.878-.271-1.449-.258-.558-.568-.932-.927-1.121-.359-.189-.695-.211-1.006-.066-.308.143-.505.412-.591.808-.085.394.003.875.265 1.439zM129.919 74.931l-1.259.488-1.142-2.943c-.228-.589-.404-.973-.527-1.149a.868.868 0 0 0-.44-.349.72.72 0 0 0-.499.013.966.966 0 0 0-.493.426 1.146 1.146 0 0 0-.141.702c.023.265.164.729.42 1.392l1.013 2.611-1.258.489-2.235-5.76 1.166-.453.326.841c.082-.405.22-.74.416-1.004.197-.263.454-.456.769-.579.367-.143.714-.168 1.041-.076.326.093.595.27.807.53.212.261.428.674.646 1.238l1.39 3.583zM131.41 67.931l.41 1.237-.871.288.784 2.366c.17.513.282.806.334.878.102.131.23.169.39.116.118-.039.272-.146.461-.317l.51 1.166a2.235 2.235 0 0 1-.927.564c-.325.108-.612.117-.86.027-.247-.089-.452-.269-.615-.537-.123-.197-.293-.623-.511-1.279l-.849-2.56-.588.194-.41-1.236.588-.194-.386-1.165.981-1.33.686 2.07.873-.288zM135.424 73.181l-1.296.377-1.721-5.934 1.202-.349.245.844c.09-.454.199-.771.324-.948a.917.917 0 0 1 .508-.359c.296-.086.606-.068.934.051l-.008 1.485c-.263-.108-.489-.136-.68-.081a.686.686 0 0 0-.417.337c-.098.171-.127.44-.086.804.041.364.195 1.011.465 1.939l.53 1.834zM136.715 69.493a3.733 3.733 0 0 1-.024-1.693c.121-.54.344-.975.667-1.306a2.38 2.38 0 0 1 1.195-.662c.797-.187 1.496-.021 2.097.494.601.517.998 1.19 1.192 2.022.145.62.158 1.208.037 1.763-.12.555-.343 1.003-.669 1.345s-.719.565-1.179.674c-.736.172-1.413.034-2.03-.412-.616-.447-1.045-1.188-1.286-2.225zm1.362-.228c.144.61.371 1.043.684 1.3.313.257.637.345.977.266.331-.077.578-.301.74-.67.163-.37.171-.861.029-1.475-.14-.599-.367-1.027-.679-1.285-.313-.259-.638-.349-.973-.271-.331.077-.579.301-.743.671-.165.37-.177.858-.035 1.464zM143.492 71.241l-1.55-8.385 1.328-.245 1.549 8.385-1.327.245zM146.139 70.772l-1.301-8.428 1.335-.206 1.3 8.428-1.334.206zM151.46 68.101l1.361.125c-.111.637-.338 1.125-.682 1.465-.343.34-.785.539-1.324.598-.749.082-1.354-.104-1.815-.557-.544-.526-.875-1.311-.989-2.354-.112-1.027.039-1.877.456-2.547.354-.567.856-.886 1.507-.957.725-.079 1.321.125 1.79.612.539.558.874 1.433 1.004 2.621l.015.187-3.352.367c.061.486.211.852.453 1.096.241.244.511.35.811.316.43-.047.686-.371.765-.972zm-.111-1.657c-.063-.479-.206-.829-.426-1.049-.22-.221-.464-.316-.73-.287-.284.03-.508.183-.674.455-.169.277-.227.645-.173 1.101l2.003-.22zM155.361 69.765l-1.348.079-.364-6.167 1.249-.074.051.877c.19-.423.366-.707.527-.853a.906.906 0 0 1 .575-.237c.306-.019.606.067.898.256l-.336 1.447c-.232-.165-.447-.242-.645-.229a.687.687 0 0 0-.481.234c-.134.147-.221.402-.262.766-.042.364-.034 1.028.023 1.993l.113 1.908zM157.311 67.881l1.348-.262c.122.647.488.968 1.096.963.324-.003.565-.067.723-.192a.582.582 0 0 0 .236-.485.463.463 0 0 0-.107-.319c-.076-.077-.222-.143-.442-.199-1.109-.284-1.813-.557-2.115-.818-.378-.327-.568-.778-.573-1.354-.004-.575.175-1.038.539-1.387s.894-.525 1.591-.531c.667-.006 1.173.118 1.524.373.349.256.595.67.74 1.242l-1.266.296c-.117-.496-.439-.741-.965-.737-.331.003-.566.053-.705.149-.141.097-.21.22-.208.372.001.136.067.247.196.336.129.092.529.229 1.202.412.752.206 1.266.457 1.538.754.268.297.403.693.408 1.189.005.598-.196 1.093-.604 1.484s-.975.589-1.699.596c-.658.006-1.198-.152-1.617-.473-.423-.32-.702-.79-.84-1.409zM250.718 157.491l8.527-.012.003 2.279c.002.851-.039 1.406-.119 1.667-.132.417-.413.761-.843 1.032-.431.271-.984.408-1.663.408-.617.002-1.134-.115-1.551-.348-.417-.233-.71-.525-.88-.876-.169-.351-.254-.955-.255-1.812l-.001-.93-3.217.004-.001-1.412zm7.087 1.405l-2.426.004.001.785c.001.527.038.886.112 1.075a.958.958 0 0 0 .4.466c.191.12.428.18.708.18a1.3 1.3 0 0 0 .717-.188.927.927 0 0 0 .39-.463c.066-.185.099-.572.099-1.166l-.001-.693zM250.583 165.207l.072-1.349 6.169.337-.069 1.249-.876-.048c.398.236.661.443.788.62a.918.918 0 0 1 .17.598 1.472 1.472 0 0 1-.355.864l-1.399-.498c.189-.212.29-.417.301-.616a.688.688 0 0 0-.179-.504c-.131-.149-.374-.266-.73-.348-.357-.082-1.019-.149-1.984-.202l-1.908-.103zM252.073 170.807l-.412 1.304c-.598-.244-1.027-.569-1.286-.978s-.36-.882-.304-1.421c.079-.749.39-1.301.931-1.656.63-.42 1.467-.574 2.51-.465 1.027.108 1.825.438 2.393.987.479.465.683 1.024.614 1.675-.076.725-.402 1.265-.979 1.619-.66.409-1.586.55-2.775.425l-.184-.025.354-3.354c-.489-.043-.878.027-1.168.211-.29.183-.45.424-.481.724-.046.431.217.749.787.954zm1.642.244c.48.039.854-.025 1.115-.194.263-.168.408-.386.437-.652.03-.283-.071-.535-.303-.756-.234-.225-.581-.359-1.037-.402l-.212 2.004zM251.648 172.774l.026 1.373c-.657.01-1.036.314-1.136.915-.054.319-.03.567.066.745a.58.58 0 0 0 .437.315.46.46 0 0 0 .334-.052c.088-.061.179-.193.271-.4.469-1.044.859-1.691 1.168-1.944.388-.315.864-.426 1.433-.332.567.094.992.349 1.273.767.282.419.366.972.252 1.66-.109.657-.318 1.136-.63 1.437-.311.3-.762.472-1.35.517l-.075-1.298c.509-.03.806-.306.892-.824.054-.327.045-.567-.025-.721a.434.434 0 0 0-.331-.269.403.403 0 0 0-.365.135c-.112.112-.317.482-.612 1.113-.332.707-.667 1.169-1.006 1.386-.338.214-.752.279-1.241.198-.591-.098-1.043-.381-1.358-.85s-.415-1.061-.297-1.775c.107-.65.354-1.154.743-1.513.387-.358.897-.553 1.531-.583zM250.189 181.526l-.563 1.244c-.565-.312-.953-.686-1.162-1.121-.211-.436-.255-.918-.136-1.446.167-.734.54-1.246 1.119-1.535.676-.343 1.523-.399 2.547-.167 1.009.229 1.762.648 2.26 1.261.42.519.558 1.097.414 1.736-.161.71-.549 1.208-1.163 1.492-.703.329-1.639.36-2.806.097l-.18-.047.745-3.29c-.48-.101-.875-.077-1.184.071-.31.148-.497.369-.563.663-.094.423.128.771.672 1.042zm1.602.435c.473.095.85.074 1.13-.062.28-.137.451-.336.51-.598.063-.278-.007-.539-.211-.785-.207-.251-.535-.425-.984-.522l-.445 1.967zM246.416 187.866l.38-1.296 3.029.887c.607.177 1.02.271 1.234.282a.86.86 0 0 0 .544-.137.736.736 0 0 0 .294-.404c.063-.217.051-.434-.037-.65s-.245-.396-.471-.539c-.225-.144-.679-.315-1.359-.515l-2.689-.786.38-1.297 5.929 1.735-.352 1.201-.865-.254c.272.312.453.625.543.942.089.315.086.637-.01.962-.11.378-.302.668-.573.871a1.553 1.553 0 0 1-.912.317c-.335.01-.794-.071-1.376-.241l-3.689-1.078zM251.07 193.288l-1.231-.428.302-.867-2.355-.818c-.511-.178-.811-.268-.899-.27-.166 0-.274.08-.33.238-.041.118-.051.305-.028.56l-1.236-.306a2.248 2.248 0 0 1 .117-1.08c.112-.324.279-.557.501-.698s.489-.194.803-.16c.23.021.672.146 1.324.373l2.547.885.204-.585 1.23.428-.203.585 1.159.403.458 1.589-2.061-.716-.302.867zM245.674 195.528l-.751 1.142c-.509-.397-.834-.827-.972-1.291-.139-.463-.106-.946.096-1.449.279-.7.728-1.146 1.346-1.341.721-.232 1.567-.153 2.542.237.959.384 1.637.917 2.032 1.601.334.578.378 1.172.136 1.779-.271.677-.732 1.107-1.384 1.291-.745.213-1.675.098-2.785-.347l-.171-.075 1.254-3.131c-.459-.176-.852-.214-1.18-.116-.329.099-.55.287-.661.566-.162.404.004.782.498 1.134zm1.512.682c.453.168.828.208 1.127.117.299-.09.498-.26.598-.51.104-.264.076-.534-.086-.809-.164-.28-.461-.504-.889-.671l-.75 1.873zM242.379 198.17l.563-1.229 5.615 2.575-.521 1.137-.799-.365c.284.365.453.654.506.864a.915.915 0 0 1-.061.619c-.129.28-.345.504-.647.674l-1.12-.977c.255-.127.423-.282.506-.462a.688.688 0 0 0 .019-.535c-.065-.187-.25-.385-.553-.591-.303-.207-.893-.512-1.771-.915l-1.737-.795zM243.132 200.767l-.4 1.314c-.628-.195-1.082-.022-1.363.517-.148.287-.204.53-.168.729a.591.591 0 0 0 .318.436c.12.063.231.08.332.054.104-.03.23-.129.385-.296.768-.848 1.339-1.344 1.712-1.488.466-.18.954-.137 1.465.129.511.264.835.639.974 1.123.138.484.046 1.036-.274 1.656-.308.591-.655.981-1.044 1.17-.389.189-.87.214-1.444.074l.331-1.257c.493.128.861-.041 1.104-.509.152-.293.219-.524.199-.693a.436.436 0 0 0-.231-.357c-.122-.063-.251-.057-.39.016-.143.071-.451.36-.927.869-.534.568-.996.904-1.386 1.006-.388.098-.802.033-1.242-.196-.53-.274-.873-.685-1.028-1.228-.154-.544-.065-1.138.269-1.781.303-.584.694-.987 1.174-1.208.477-.223 1.022-.248 1.634-.08zM101.174 233.708l-.904 1.125-2.383-1.916 2.128-2.647c.467-.088 1-.058 1.604.095a4.03 4.03 0 0 1 1.57.762c.54.435.911.951 1.111 1.547.201.597.209 1.256.027 1.978-.183.721-.56 1.438-1.134 2.151-.589.731-1.213 1.26-1.875 1.583-.663.322-1.292.456-1.889.399-.597-.058-1.167-.304-1.71-.741-.653-.524-1.043-1.11-1.171-1.758-.127-.647.011-1.337.414-2.067l1.293.63c-.192.407-.252.789-.18 1.146.073.356.262.658.566.902.471.378.998.502 1.582.373.585-.131 1.177-.568 1.778-1.314.643-.802.975-1.537.994-2.208.02-.577-.202-1.051-.664-1.423a2.18 2.18 0 0 0-.793-.389 2.726 2.726 0 0 0-.955-.087l-.674.842 1.265 1.017zM96.24 231.027l.713 1.028c-.534.355-1.019.518-1.454.486s-.888-.266-1.357-.7c-.417-.387-.681-.741-.792-1.063a1.414 1.414 0 0 1-.029-.913c.093-.287.384-.696.876-1.226l1.308-1.391c.365-.393.621-.699.768-.921.147-.221.278-.479.393-.774l.977.907-.332.613a2.53 2.53 0 0 1 .96.054c.286.078.539.219.755.421.363.336.546.733.551 1.191s-.179.89-.555 1.293a2.045 2.045 0 0 1-.764.539 1.571 1.571 0 0 1-.823.087c-.277-.046-.645-.199-1.104-.462-.554-.318-.963-.517-1.228-.593-.233.252-.369.433-.406.545a.572.572 0 0 0 .018.376c.049.139.161.289.335.451.177.165.354.254.527.269.176.017.396-.056.663-.217zm-.412-2.201c.173.065.424.188.753.365.38.204.662.302.846.292a.706.706 0 0 0 .491-.244.867.867 0 0 0 .251-.584.682.682 0 0 0-.228-.541.973.973 0 0 0-.547-.242 1.035 1.035 0 0 0-.601.074c-.176.082-.422.296-.743.641l-.222.239zM89.966 227.522l.931-.911.642.656 1.782-1.743c.386-.378.601-.605.643-.686.073-.148.051-.281-.066-.401-.087-.089-.25-.181-.489-.274l.826-.971c.334.109.638.305.914.586.239.245.373.498.401.761.028.262-.043.524-.214.789-.122.196-.431.536-.925 1.02l-1.927 1.886.433.442-.931.911-.434-.443-.878.858-1.625-.298 1.559-1.525-.642-.657zM90.349 221.67l-.684-1.183c.583-.277 1.112-.375 1.588-.292.476.084.894.328 1.254.733.5.563.699 1.164.597 1.804-.114.748-.564 1.472-1.349 2.168-.771.687-1.552 1.054-2.34 1.103-.667.039-1.218-.186-1.653-.676-.484-.544-.663-1.148-.536-1.813.143-.763.662-1.542 1.556-2.337l.143-.119 2.24 2.521c.361-.332.572-.666.631-1.004s-.011-.619-.212-.844c-.285-.324-.697-.344-1.235-.061zm-1.285 1.049c-.353.329-.556.647-.609.955-.051.308.011.562.19.763.189.212.442.307.761.285.324-.022.656-.188.998-.495l-1.34-1.508zM86.266 220.435l.545 1.125c-.583.27-1.086.355-1.511.257-.426-.099-.837-.399-1.232-.901-.353-.447-.558-.838-.619-1.172a1.418 1.418 0 0 1 .111-.907c.136-.271.488-.629 1.055-1.075l1.508-1.172c.421-.332.721-.596.9-.791s.349-.431.509-.705l.823 1.047-.421.556c.356.013.669.08.94.201.271.121.497.299.681.531.306.389.427.81.361 1.264-.065.453-.315.851-.749 1.191a2.062 2.062 0 0 1-.838.415 1.58 1.58 0 0 1-.826-.042c-.267-.088-.606-.297-1.02-.626-.499-.401-.873-.66-1.122-.775-.271.212-.432.37-.486.475-.055.104-.068.229-.041.374s.115.312.261.498c.15.189.31.305.481.347.174.04.403.002.69-.115zm-.067-2.24c.161.091.391.251.688.478.344.261.607.4.79.42a.702.702 0 0 0 .522-.166.874.874 0 0 0 .339-.538.686.686 0 0 0-.142-.57.987.987 0 0 0-.504-.324 1.052 1.052 0 0 0-.604-.019c-.186.055-.463.227-.833.518l-.256.201zM86.439 213.584l-4.203 4.809-.735-1.084 2.816-3.063-3.847 1.541-.724-1.067 2.876-2.975-3.905 1.456-.744-1.099L84.012 210l.72 1.063-2.794 2.96 3.775-1.513.726 1.074zM78.63 209.431l.38 1.191c-.615.185-1.125.198-1.532.041-.408-.158-.771-.514-1.093-1.067-.284-.492-.433-.907-.446-1.247-.013-.34.066-.634.239-.882.172-.249.571-.554 1.196-.915l1.658-.948c.464-.268.798-.487 1.003-.655.204-.168.406-.377.602-.626l.668 1.153-.496.49c.351.063.651.173.901.332.252.158.452.366.6.621.249.43.308.863.179 1.303-.129.439-.433.797-.91 1.074a2.054 2.054 0 0 1-.888.291c-.29.02-.56-.033-.812-.158-.251-.124-.558-.378-.919-.764-.438-.467-.772-.776-1.002-.926-.298.172-.48.306-.548.401a.575.575 0 0 0-.093.364c.007.147.069.324.189.53.122.209.264.346.426.411.164.067.396.062.698-.014zm.25-2.226c.146.113.351.304.613.57.304.306.544.482.723.526.179.045.36.016.541-.09a.872.872 0 0 0 .411-.484.681.681 0 0 0-.059-.585.985.985 0 0 0-.453-.392 1.032 1.032 0 0 0-.597-.104c-.191.027-.49.159-.898.395l-.281.164zM74.976 206.849l-.646-1.284 3.375-3.056-4.454.91-.628-1.249 6.119-1.067 1.188-.211c.456-.061.809-.067 1.056-.024.249.044.472.146.674.304.201.159.377.39.53.693.118.233.203.477.256.729l-1.09.681a2.484 2.484 0 0 0-.188-.541.85.85 0 0 0-.514-.452c-.227-.071-.565-.054-1.013.053l-4.665 4.514zM76.413 199.84l-.764-1.14c.548-.365.702-.826.461-1.384-.129-.297-.282-.494-.459-.592a.583.583 0 0 0-.538-.029.466.466 0 0 0-.252.224c-.042.1-.046.26-.013.484.169 1.132.192 1.888.068 2.268-.155.475-.496.826-1.024 1.054-.528.228-1.024.242-1.486.043s-.832-.618-1.109-1.259c-.264-.612-.346-1.129-.247-1.549.1-.421.385-.811.856-1.166l.765 1.052c-.412.3-.512.692-.305 1.175.131.305.269.502.413.594.142.09.284.106.422.046.125-.054.203-.157.234-.312.035-.154.006-.577-.086-1.266-.104-.774-.072-1.346.097-1.71.168-.362.481-.642.938-.839.548-.237 1.082-.243 1.601-.02.521.224.923.668 1.21 1.334.261.604.325 1.162.193 1.674s-.457.952-.975 1.318z"/></g><g fill="#FFFFFF"><path d="M40.712 100.859l1.209-2.294c.306-.58.601-.983.886-1.21s.647-.384 1.086-.471c.438-.086.94-.07 1.505.046.565.117 1.213.368 1.942.752.657.346 1.189.722 1.596 1.126s.692.795.856 1.172c.163.377.231.765.205 1.163-.027.398-.174.852-.441 1.359l-1.244 2.361-7.6-4.004zm1.947-.577l5.028 2.649.497-.943c.213-.404.329-.717.349-.938a1.188 1.188 0 0 0-.11-.627c-.092-.197-.285-.421-.576-.671-.292-.251-.708-.52-1.25-.805-.563-.297-1.027-.491-1.393-.585-.365-.093-.685-.106-.958-.041-.273.066-.5.201-.683.405-.138.152-.34.481-.605.986l-.299.57zM51.427 95.146l.92-1.015c.446.474.703.95.77 1.431.067.48-.038.955-.314 1.423-.384.649-.898 1.022-1.542 1.119-.752.118-1.583-.092-2.492-.63-.896-.53-1.489-1.165-1.779-1.904-.244-.626-.198-1.221.136-1.785.372-.629.896-.983 1.572-1.065.774-.095 1.68.164 2.717.778l.159.101-1.722 2.909c.429.245.814.345 1.156.299.341-.046.589-.198.743-.458.221-.375.113-.776-.324-1.203zm-1.401-.911c-.424-.238-.792-.335-1.102-.292-.311.043-.535.181-.672.413-.145.245-.158.517-.038.814.122.304.382.571.782.804l1.03-1.739zM55.155 92.901l-6.342-1.666.771-1.184 3.188.928 1.041.344-.732-.818-2.127-2.553.755-1.159 4.103 5.102-.657 1.006zM51.582 85.53l-1.249-.872.775-1.11 1.249.873-.775 1.109zm5.792 4.048l-5.101-3.564.775-1.109 5.101 3.564-.775 1.109zM58.053 81.197l-.562 1.241c-.582-.313-1.027-.261-1.338.154a.953.953 0 0 0-.145.9c.104.333.423.699.96 1.101.593.443 1.073.676 1.44.695s.652-.106.856-.38a.831.831 0 0 0 .168-.659c-.041-.236-.217-.515-.528-.835l1.017-.9c1.037 1.117 1.167 2.197.388 3.238-.499.667-1.122.971-1.871.913-.749-.057-1.48-.353-2.195-.888-.855-.64-1.37-1.309-1.544-2.008-.173-.698-.039-1.344.404-1.937.358-.479.777-.774 1.256-.888.481-.11 1.045-.027 1.694.253zM62.498 79.547l1.063-.864c.37.535.552 1.045.547 1.53-.006.485-.181.938-.524 1.359-.478.585-1.042.876-1.693.875-.761.004-1.551-.328-2.369-.997-.806-.658-1.297-1.375-1.473-2.149-.147-.655-.013-1.236.402-1.745.462-.565 1.033-.838 1.713-.816.78.022 1.637.414 2.57 1.177l.142.123-2.14 2.618c.388.307.754.463 1.099.469.344.006.612-.108.803-.342.275-.338.228-.75-.14-1.238zm-1.248-1.11c-.384-.299-.732-.45-1.046-.454s-.556.099-.726.308c-.18.221-.233.487-.16.8.074.318.292.622.653.912l1.279-1.566zM63.944 78.116l.712-1.178c.565.347 1.05.292 1.456-.163.216-.241.331-.464.344-.667a.59.59 0 0 0-.204-.503.468.468 0 0 0-.311-.136c-.107.003-.256.067-.446.192-.958.632-1.636.971-2.035 1.019-.498.059-.963-.105-1.396-.491-.433-.385-.657-.831-.673-1.337s.209-1.02.674-1.542c.444-.499.879-.791 1.305-.878s.9.01 1.425.29l-.632 1.14c-.448-.248-.848-.175-1.199.219-.221.247-.342.456-.364.625s.024.304.138.405c.102.091.23.118.383.082.156-.033.528-.237 1.116-.612.661-.421 1.193-.632 1.598-.633.402.002.79.169 1.163.502.449.4.683.884.7 1.452.018.567-.215 1.123-.699 1.665-.439.493-.92.787-1.441.882s-1.059-.015-1.614-.333zM199.143 41.801l1.282-8.66 1.375.488-.978 5.917 3.188-5.133 1.598.566-.843 6.071 3.031-5.294 1.348.479-4.484 7.522-1.427-.506.822-6.525-3.463 5.589-1.449-.514zM210.148 43.886l1.13.774c-.408.506-.846.825-1.313.957-.467.132-.951.093-1.452-.118-.695-.293-1.135-.751-1.317-1.376-.22-.729-.124-1.58.285-2.555.404-.959.952-1.633 1.645-2.021.587-.326 1.183-.362 1.787-.108.674.283 1.097.755 1.269 1.413.2.754.066 1.687-.401 2.798l-.078.171-3.116-1.312c-.185.459-.23.854-.139 1.186.092.333.276.558.555.674.399.169.781.008 1.145-.483zm.712-1.512c.178-.453.225-.83.14-1.132s-.252-.505-.5-.609c-.264-.11-.534-.086-.813.073-.284.161-.515.456-.69.884l1.863.784zM211.536 46.635l3.688-7.758 1.223.581-1.326 2.789c.312-.173.609-.271.896-.295.285-.024.557.024.813.146.543.258.885.722 1.026 1.392.142.669-.015 1.483-.471 2.44-.453.955-.994 1.598-1.622 1.93-.629.332-1.202.374-1.72.128a1.59 1.59 0 0 1-.665-.617 2.23 2.23 0 0 1-.316-1.023l-.393.825-1.133-.538zm2.605-2.356c-.23.484-.36.876-.39 1.175-.029.298.009.554.115.767a.941.941 0 0 0 .44.453c.268.128.564.096.889-.095s.631-.591.92-1.199c.305-.641.428-1.148.371-1.524-.057-.377-.233-.636-.53-.776-.282-.134-.587-.11-.916.072-.328.181-.628.557-.899 1.127zM231.069 273.523l-1.217.729-2.391-3.991c-.371-.62-.628-1.015-.771-1.185-.248-.292-.527-.467-.837-.522-.31-.057-.63.016-.963.215-.282.169-.475.369-.577.602s-.12.479-.052.742c.068.262.322.76.762 1.493l2.442 4.076-1.217.729-2.318-3.87c-.593-.989-.968-1.735-1.126-2.239a2.117 2.117 0 0 1 .072-1.498c.206-.495.613-.924 1.22-1.287.63-.378 1.189-.56 1.678-.545.489.015.937.179 1.342.494s.938 1.024 1.599 2.127l2.354 3.93zM220.631 269.686l4.126 7.534-1.244.682-4.126-7.534 1.244-.682zM59.119 247.653l-1.653-1.998c-.418-.505-.677-.933-.776-1.283-.1-.35-.105-.744-.017-1.183.089-.438.296-.896.621-1.372.326-.478.806-.979 1.44-1.504.572-.473 1.123-.82 1.653-1.04.53-.221 1-.334 1.411-.34s.795.08 1.153.258.719.487 1.084.93l1.702 2.057-6.618 5.475zm.215-2.018l4.379-3.623-.68-.822c-.292-.352-.536-.579-.732-.683s-.404-.15-.621-.141-.498.102-.841.274c-.344.173-.751.454-1.223.845-.49.405-.849.759-1.075 1.061s-.362.591-.406.868-.007.539.111.786c.088.186.313.499.677.938l.411.497zM54.381 241.848l-1.674-2.271c-.457-.62-.722-1.098-.794-1.433-.072-.336-.029-.695.129-1.079.159-.384.418-.71.78-.977a2.28 2.28 0 0 1 1.067-.443 1.81 1.81 0 0 1 1.023.139 1.903 1.903 0 0 1 .031-1.241c.149-.403.431-.758.846-1.064.503-.37 1.018-.563 1.543-.577s.951.114 1.276.384c.226.188.647.699 1.264 1.536l1.422 1.929-6.913 5.097zm.309-1.99l1.599-1.179-.557-.755c-.334-.453-.548-.727-.643-.822a.88.88 0 0 0-.585-.274c-.215-.012-.437.067-.667.236-.204.15-.337.317-.398.501s-.061.351.002.501.316.528.761 1.132l.488.66zm2.749-2.027l1.844-1.36-.784-1.063c-.344-.467-.589-.748-.735-.845-.146-.096-.324-.137-.533-.121s-.423.104-.643.266c-.226.167-.376.352-.451.556-.075.203-.081.405-.019.604s.274.545.637 1.036l.684.927z"/></g></svg>